<?xml version="1.0" encoding="UTF-8" standalone="no"?>
<!-- Generator: Adobe Illustrator 19.0.0, SVG Export Plug-In . SVG Version: 6.00 Build 0)  -->

<svg
   xmlns:dc="http://purl.org/dc/elements/1.1/"
   xmlns:cc="http://creativecommons.org/ns#"
   xmlns:rdf="http://www.w3.org/1999/02/22-rdf-syntax-ns#"
   xmlns:svg="http://www.w3.org/2000/svg"
   xmlns="http://www.w3.org/2000/svg"
   xmlns:xlink="http://www.w3.org/1999/xlink"
   xmlns:sodipodi="http://sodipodi.sourceforge.net/DTD/sodipodi-0.dtd"
   xmlns:inkscape="http://www.inkscape.org/namespaces/inkscape"
   version="1.1"
   id="Layer_1"
   x="0px"
   y="0px"
   viewBox="0 0 512.002 512.002"
   style="enable-background:new 0 0 512.002 512.002;"
   xml:space="preserve"
   width="512px"
   height="512px"
   sodipodi:docname="vite.svg"
   inkscape:version="0.92.5 (2060ec1f9f, 2020-04-08)"><metadata
   id="metadata19"><rdf:RDF><cc:Work
       rdf:about=""><dc:format>image/svg+xml</dc:format><dc:type
         rdf:resource="http://purl.org/dc/dcmitype/StillImage" /></cc:Work></rdf:RDF></metadata><defs
   id="defs17"><inkscape:path-effect
     effect="knot"
     id="path-effect4609"
     is_visible="true"
     interruption_width="5.4"
     prop_to_stroke_width="true"
     add_stroke_width="true"
     add_other_stroke_width="true"
     switcher_size="15"
     crossing_points_vector="" /><inkscape:path-effect
     effect="rough_hatches"
     id="path-effect904"
     is_visible="true"
     direction="256.00113,251 , 90.740067,0"
     dist_rdm="75;1"
     growth="0"
     do_bend="true"
     bender="256.00113,256 , 5,0"
     bottom_edge_variation="51.200001;1"
     top_edge_variation="51.200001;1"
     bottom_tgt_variation="0;1"
     top_tgt_variation="0;1"
     scale_bf="1"
     scale_bb="1"
     scale_tf="1"
     scale_tb="1"
     top_smth_variation="0;1"
     bottom_smth_variation="0;1"
     fat_output="true"
     stroke_width_top="1"
     stroke_width_bottom="1"
     front_thickness="1"
     back_thickness="0.25" /><inkscape:path-effect
     effect="ellipse_5pts"
     id="path-effect902"
     is_visible="true" /><inkscape:path-effect
     effect="gears"
     id="path-effect900"
     is_visible="true"
     teeth="10"
     phi="5"
     min_radius="5" /><inkscape:path-effect
     effect="vonkoch"
     id="path-effect898"
     is_visible="true"
     ref_path="M 74.521,256 H 437.48127"
     generator="m 74.521,512 h 120.98676 m 120.98675,0 h 120.98676"
     similar_only="false"
     nbgenerations="1"
     drawall="true"
     maxComplexity="1000" /><inkscape:path-effect
     effect="copy_rotate"
     starting_point="256.00113,256"
     origin="74.521,256"
     id="path-effect896"
     is_visible="true"
     copies_to_360="true"
     fuse_paths="false"
     starting_angle="0"
     rotation_angle="60"
     num_copies="6" /><inkscape:path-effect
     effect="powerstroke"
     id="path-effect894"
     is_visible="false"
     offset_points=""
     sort_points="true"
     interpolator_type="CubicBezierFit"
     interpolator_beta="0.2"
     start_linecap_type="butt"
     linejoin_type="extrp_arc"
     miter_limit="4"
     end_linecap_type="butt" /><linearGradient
     id="linearGradient2795"><stop
       id="stop2797"
       offset="0"
       style="stop-color:#b8b8b8;stop-opacity:0.49803922;" /><stop
       id="stop2799"
       offset="1"
       style="stop-color:#7f7f7f;stop-opacity:0;" /></linearGradient><linearGradient
     id="linearGradient2787"><stop
       id="stop2789"
       offset="0"
       style="stop-color:#7f7f7f;stop-opacity:0.5;" /><stop
       id="stop2791"
       offset="1"
       style="stop-color:#7f7f7f;stop-opacity:0;" /></linearGradient><linearGradient
     id="linearGradient3676"><stop
       id="stop3678"
       offset="0"
       style="stop-color:#b2b2b2;stop-opacity:0.5;" /><stop
       id="stop3680"
       offset="1"
       style="stop-color:#b3b3b3;stop-opacity:0;" /></linearGradient><linearGradient
     id="linearGradient3236"><stop
       id="stop3244"
       offset="0"
       style="stop-color:#f4f4f4;stop-opacity:1" /><stop
       id="stop3240"
       offset="1"
       style="stop-color:white;stop-opacity:1" /></linearGradient><linearGradient
     id="linearGradient4671"><stop
       id="stop4673"
       offset="0"
       style="stop-color:#ffd43b;stop-opacity:1;" /><stop
       id="stop4675"
       offset="1"
       style="stop-color:#ffe873;stop-opacity:1" /></linearGradient><linearGradient
     id="linearGradient4689"><stop
       id="stop4691"
       offset="0"
       style="stop-color:#5a9fd4;stop-opacity:1;" /><stop
       id="stop4693"
       offset="1"
       style="stop-color:#306998;stop-opacity:1;" /></linearGradient><linearGradient
     gradientTransform="translate(100.2702,99.61116)"
     gradientUnits="userSpaceOnUse"
     xlink:href="#linearGradient4671"
     id="linearGradient2987"
     y2="144.75717"
     x2="-65.308502"
     y1="144.75717"
     x1="224.23996" /><linearGradient
     gradientTransform="translate(100.2702,99.61116)"
     gradientUnits="userSpaceOnUse"
     xlink:href="#linearGradient4689"
     id="linearGradient2990"
     y2="76.313133"
     x2="26.670298"
     y1="77.475983"
     x1="172.94208" /><linearGradient
     y2="144.75717"
     x2="-65.308502"
     y1="144.75717"
     x1="224.23996"
     gradientTransform="matrix(0.562541,0,0,0.567972,-11.5974,-7.60954)"
     gradientUnits="userSpaceOnUse"
     id="linearGradient2255"
     xlink:href="#linearGradient4671"
     inkscape:collect="always" /><linearGradient
     y2="76.313133"
     x2="26.670298"
     y1="76.176224"
     x1="172.94208"
     gradientTransform="matrix(0.562541,0,0,0.567972,-11.5974,-7.60954)"
     gradientUnits="userSpaceOnUse"
     id="linearGradient2258"
     xlink:href="#linearGradient4689"
     inkscape:collect="always" /><radialGradient
     gradientUnits="userSpaceOnUse"
     gradientTransform="matrix(1,0,0,0.177966,0,108.7434)"
     r="29.036913"
     fy="132.28575"
     fx="61.518883"
     cy="132.28575"
     cx="61.518883"
     id="radialGradient2801"
     xlink:href="#linearGradient2795"
     inkscape:collect="always" /><linearGradient
     y2="137.27299"
     x2="112.03144"
     y1="192.35176"
     x1="150.96111"
     gradientTransform="matrix(0.562541,0,0,0.567972,-14.99112,-11.702371)"
     gradientUnits="userSpaceOnUse"
     id="linearGradient1475"
     xlink:href="#linearGradient4671"
     inkscape:collect="always" /><linearGradient
     y2="114.39767"
     x2="135.66525"
     y1="20.603781"
     x1="26.648937"
     gradientTransform="matrix(0.562541,0,0,0.567972,-14.99112,-11.702371)"
     gradientUnits="userSpaceOnUse"
     id="linearGradient1478"
     xlink:href="#linearGradient4689"
     inkscape:collect="always" /><radialGradient
     r="29.036913"
     fy="132.28575"
     fx="61.518883"
     cy="132.28575"
     cx="61.518883"
     gradientTransform="matrix(1.7490565e-8,-0.23994696,1.054668,3.7915457e-7,-83.7008,142.46201)"
     gradientUnits="userSpaceOnUse"
     id="radialGradient1480"
     xlink:href="#linearGradient2795"
     inkscape:collect="always" /></defs><sodipodi:namedview
   pagecolor="#ffffff"
   bordercolor="#666666"
   borderopacity="1"
   objecttolerance="10"
   gridtolerance="10"
   guidetolerance="10"
   inkscape:pageopacity="0"
   inkscape:pageshadow="2"
   inkscape:window-width="1854"
   inkscape:window-height="2032"
   id="namedview15"
   showgrid="false"
   inkscape:zoom="0.921875"
   inkscape:cx="200.49074"
   inkscape:cy="-90.607049"
   inkscape:window-x="132"
   inkscape:window-y="54"
   inkscape:window-maximized="0"
   inkscape:current-layer="Layer_1" />
<g
   id="g892"
   transform="matrix(3.1474228,0,0,3.1474228,0.22528901,84.45468)"><path
     id="path1948"
     d="M 54.918785,9.1927421e-4 C 50.335132,0.02221727 45.957846,0.41313697 42.106285,1.0946693 30.760069,3.0991731 28.700036,7.2947714 28.700035,15.032169 v 10.21875 h 26.8125 v 3.40625 h -26.8125 -10.0625 c -7.792459,0 -14.6157588,4.683717 -16.7499998,13.59375 -2.46181998,10.212966 -2.57101508,16.586023 0,27.25 1.9059283,7.937852 6.4575432,13.593748 14.2499998,13.59375 h 9.21875 v -12.25 c 0,-8.849902 7.657144,-16.656248 16.75,-16.65625 h 26.78125 c 7.454951,0 13.406253,-6.138164 13.40625,-13.625 v -25.53125 c 0,-7.2663386 -6.12998,-12.7247771 -13.40625,-13.9374997 C 64.281548,0.32794397 59.502438,-0.02037903 54.918785,9.1927421e-4 Z m -14.5,8.21875012579 c 2.769547,0 5.03125,2.2986456 5.03125,5.1249996 -2e-6,2.816336 -2.261703,5.09375 -5.03125,5.09375 -2.779476,-1e-6 -5.03125,-2.277415 -5.03125,-5.09375 -10e-7,-2.826353 2.251774,-5.1249996 5.03125,-5.1249996 z"
     style="fill:url(#linearGradient1478);fill-opacity:1"
     inkscape:connector-curvature="0" /><path
     id="path1950"
     d="m 85.637535,28.657169 v 11.90625 c 0,9.230755 -7.825895,16.999999 -16.75,17 h -26.78125 c -7.335833,0 -13.406249,6.278483 -13.40625,13.625 v 25.531247 c 0,7.266344 6.318588,11.540324 13.40625,13.625004 8.487331,2.49561 16.626237,2.94663 26.78125,0 6.750155,-1.95439 13.406253,-5.88761 13.40625,-13.625004 V 86.500919 h -26.78125 v -3.40625 h 26.78125 13.406254 c 7.792461,0 10.696251,-5.435408 13.406241,-13.59375 2.79933,-8.398886 2.68022,-16.475776 0,-27.25 -1.92578,-7.757441 -5.60387,-13.59375 -13.406241,-13.59375 z m -15.0625,64.65625 c 2.779478,3e-6 5.03125,2.277417 5.03125,5.093747 -2e-6,2.826354 -2.251775,5.125004 -5.03125,5.125004 -2.76955,0 -5.03125,-2.29865 -5.03125,-5.125004 2e-6,-2.81633 2.261697,-5.093747 5.03125,-5.093747 z"
     style="fill:url(#linearGradient1475);fill-opacity:1"
     inkscape:connector-curvature="0" /><ellipse
     ry="6.9673119"
     rx="35.930977"
     cy="127.70079"
     cx="55.816761"
     id="path1894"
     style="opacity:0.44382001;fill:url(#radialGradient1480);fill-opacity:1;fill-rule:nonzero;stroke:none;stroke-width:15.41740036;stroke-miterlimit:4;stroke-dasharray:none;stroke-opacity:1" /></g><g
   id="g12"
   transform="matrix(0.92921668,0,0,0.92921668,102.91695,28.16855)"
   style="fill:#800000;fill-opacity:1;fill-rule:nonzero;stroke:#800000;stroke-width:6.1825695;stroke-miterlimit:4;stroke-dasharray:none;stroke-opacity:1;paint-order:normal">
	<g
   id="g10"
   style="fill:#800000;fill-opacity:1;fill-rule:nonzero;stroke:#800000;stroke-width:6.1825695;stroke-miterlimit:4;stroke-dasharray:none;stroke-opacity:1;paint-order:normal">
		<g
   id="g8"
   style="fill:#800000;fill-opacity:1;fill-rule:nonzero;stroke:#800000;stroke-width:6.1825695;stroke-miterlimit:4;stroke-dasharray:none;stroke-opacity:1;paint-order:normal">
			<path
   d="M 429.733,343.339 C 434.471,270.576 413.602,198.275 395.108,150.185 376.731,102.396 357.54,69.278 353.513,62.526 352.254,57.176 347.176,41.485 329.856,34.035 325.979,31.518 306.287,19.061 282.6,9.937 c -36.823,-14.185 -64.138,-13.18 -81.175,2.994 -22.839,21.681 -33.39,40.966 -31.36,57.319 0.977,7.862 4.589,13.242 7.793,16.573 -0.186,1.672 -0.155,3.581 0.26,5.7 1.806,9.243 10.159,18.228 24.824,26.701 29.883,17.266 52.746,6.345 67.876,-0.881 1.434,-0.685 2.825,-1.35 4.177,-1.969 2.26,-1.035 3.26,-0.574 3.688,-0.378 2.499,1.152 4.887,5.396 6.115,8.674 -2.539,14.487 -16.283,97.845 -6.866,153.449 -25.652,-8.512 -49.277,-6.322 -66.813,-1.787 -20.467,5.295 -35.851,14.417 -42.806,19.066 -14.267,-5.817 -31.49,-6.985 -50.397,-3.455 -0.01,-0.092 -0.015,-0.151 -0.017,-0.174 -0.381,-4.145 -3.86,-7.317 -8.023,-7.317 H 82.578 c -4.451,0 -8.057,3.606 -8.057,8.057 v 182.048 c 0,4.451 3.606,8.057 8.057,8.057 4.451,0 8.057,-3.606 8.057,-8.057 v -173.99 h 12.056 c 1.651,12.88 6.043,41.329 15.879,74.716 15.143,51.401 36.242,91.86 62.854,120.603 H 82.578 c -4.451,0 -8.057,3.606 -8.057,8.057 0,4.451 3.606,8.057 8.057,8.057 h 118.755 c 3.369,0 6.381,-2.096 7.553,-5.254 1.172,-3.159 0.256,-6.712 -2.298,-8.91 -0.077,-0.067 -0.151,-0.136 -0.229,-0.203 16.282,-6.622 30.434,-15.486 42.205,-26.443 3.148,0.202 6.191,0.289 9.085,0.289 13.965,0 24.462,-1.984 26.643,-2.43 4.069,-0.553 8.314,-1.259 12.667,-2.162 34.724,-7.196 60.487,-23.621 74.929,-47.667 19.866,2.958 51.902,-0.128 62.286,-29.639 6.543,-18.592 2.489,-34.525 -4.441,-46.242 z m -10.758,40.895 c -9.587,27.236 -47.807,18.525 -49.413,18.146 -3.621,-0.873 -7.379,0.855 -9.071,4.181 -27.861,54.794 -112.887,47.95 -113.739,47.872 -0.883,-0.083 -1.763,-0.014 -2.607,0.19 -12.708,-1.411 -26.582,-5.176 -37.976,-13.723 -3.559,-2.671 -8.612,-1.95 -11.28,1.609 -2.671,3.559 -1.95,8.611 1.609,11.28 9.483,7.115 20.141,11.52 30.683,14.156 -9.772,7.084 -21.018,12.879 -33.607,17.306 -49.688,-53.612 -67.911,-141.339 -73.519,-177.321 13.378,-2.596 30.751,-3.48 45.541,3.916 2.768,1.384 6.098,1.052 8.548,-0.844 0.165,-0.129 16.941,-12.966 41.569,-19.21 24.477,-6.206 47.738,-3.984 69.419,6.57 0.298,0.171 0.605,0.324 0.922,0.457 6.618,3.3 13.09,7.371 19.401,12.23 1.464,1.128 3.194,1.674 4.909,1.674 2.415,0 4.804,-1.081 6.39,-3.142 2.715,-3.526 2.057,-8.585 -1.469,-11.3 -6.456,-4.971 -12.904,-9.065 -19.289,-12.434 -14.027,-54.965 4.817,-159.23 5.014,-160.298 0.219,-1.195 0.165,-2.424 -0.157,-3.595 -0.433,-1.574 -4.546,-15.522 -15.35,-20.558 -3.734,-1.74 -9.753,-3.096 -17.222,0.328 -1.426,0.653 -2.894,1.355 -4.409,2.079 -14.22,6.791 -30.335,14.486 -52.868,1.469 -15.669,-9.052 -17.476,-15.403 -17.109,-16.817 1.136,-1.758 1.548,-3.897 1.132,-5.966 -0.463,-2.299 -1.904,-4.282 -3.949,-5.433 -0.042,-0.023 -4.271,-2.753 -5.02,-8.79 -0.769,-6.189 1.648,-20.09 26.463,-43.646 24.986,-23.728 87.21,8.756 109.076,23.27 0.447,0.298 0.922,0.549 1.418,0.752 12.631,5.149 14.842,17.593 14.92,18.051 0.159,1.074 0.534,2.105 1.1,3.03 0.807,1.316 76.889,127.027 75.263,256.257 -0.378,-0.277 -0.752,-0.541 -1.117,-0.791 -3.678,-2.504 -8.69,-1.551 -11.194,2.126 -2.504,3.678 -1.552,8.69 2.126,11.194 0.249,0.169 24.851,17.328 14.862,45.725 z"
   id="path2"
   inkscape:connector-curvature="0"
   style="fill:#800000;fill-opacity:1;fill-rule:nonzero;stroke:#800000;stroke-width:6.1825695;stroke-miterlimit:4;stroke-dasharray:none;stroke-opacity:1;paint-order:normal" />
            <path
   d="m 294.474,349.802 c -43.914,43.329 -119.853,26.859 -120.617,26.687 -4.334,-0.982 -8.649,1.738 -9.633,6.075 -0.986,4.339 1.733,8.656 6.073,9.641 1.472,0.335 17.156,3.769 38.561,3.769 28.848,0 68.087,-6.237 96.934,-34.7 3.167,-3.125 3.201,-8.227 0.076,-11.394 -3.125,-3.168 -8.225,-3.204 -11.394,-0.078 z"
   id="path4"
   inkscape:connector-curvature="0"
   style="fill:#800000;fill-opacity:1;fill-rule:nonzero;stroke:#800000;stroke-width:6.1825695;stroke-miterlimit:4;stroke-dasharray:none;stroke-opacity:1;paint-order:normal" />
            <path
   d="m 333.317,145.422 c -4.131,1.648 -6.143,6.334 -4.499,10.466 0.241,0.605 23.924,61.309 11.079,131.941 -0.796,4.378 2.108,8.572 6.486,9.369 0.488,0.089 0.972,0.131 1.451,0.131 3.819,0 7.211,-2.727 7.918,-6.617 13.703,-75.36 -10.915,-138.166 -11.97,-140.802 -1.65,-4.128 -6.336,-6.133 -10.465,-4.488 z"
   id="path6"
   inkscape:connector-curvature="0"
   style="fill:#800000;fill-opacity:1;fill-rule:nonzero;stroke:#800000;stroke-width:6.1825695;stroke-miterlimit:4;stroke-dasharray:none;stroke-opacity:1;paint-order:normal" />
		</g>
	</g>
</g>

</svg>